<svg width="15" height="15" viewBox="0 0 20 20" fill="none" xmlns="http://www.w3.org/2000/svg">
<path d="M7 9C6.80222 9 6.60888 9.05865 6.44443 9.16853C6.27998 9.27841 6.15181 9.43459 6.07612 9.61732C6.00043 9.80004 5.98063 10.0011 6.01921 10.1951C6.0578 10.3891 6.15304 10.5673 6.29289 10.7071C6.43275 10.847 6.61093 10.9422 6.80491 10.9808C6.99889 11.0194 7.19996 10.9996 7.38268 10.9239C7.56541 10.8482 7.72159 10.72 7.83147 10.5556C7.94135 10.3911 8 10.1978 8 10C8 9.73478 7.89464 9.48043 7.70711 9.29289C7.51957 9.10536 7.26522 9 7 9ZM7 13C6.80222 13 6.60888 13.0586 6.44443 13.1685C6.27998 13.2784 6.15181 13.4346 6.07612 13.6173C6.00043 13.8 5.98063 14.0011 6.01921 14.1951C6.0578 14.3891 6.15304 14.5673 6.29289 14.7071C6.43275 14.847 6.61093 14.9422 6.80491 14.9808C6.99889 15.0194 7.19996 14.9996 7.38268 14.9239C7.56541 14.8482 7.72159 14.72 7.83147 14.5556C7.94135 14.3911 8 14.1978 8 14C8 13.7348 7.89464 13.4804 7.70711 13.2929C7.51957 13.1054 7.26522 13 7 13ZM7 5C6.80222 5 6.60888 5.05865 6.44443 5.16853C6.27998 5.27841 6.15181 5.43459 6.07612 5.61732C6.00043 5.80004 5.98063 6.00111 6.01921 6.19509C6.0578 6.38907 6.15304 6.56725 6.29289 6.70711C6.43275 6.84696 6.61093 6.9422 6.80491 6.98079C6.99889 7.01937 7.19996 6.99957 7.38268 6.92388C7.56541 6.84819 7.72159 6.72002 7.83147 6.55557C7.94135 6.39112 8 6.19778 8 6C8 5.73478 7.89464 5.48043 7.70711 5.29289C7.51957 5.10536 7.26522 5 7 5ZM13 5C12.8022 5 12.6089 5.05865 12.4444 5.16853C12.28 5.27841 12.1518 5.43459 12.0761 5.61732C12.0004 5.80004 11.9806 6.00111 12.0192 6.19509C12.0578 6.38907 12.153 6.56725 12.2929 6.70711C12.4327 6.84696 12.6109 6.9422 12.8049 6.98079C12.9989 7.01937 13.2 6.99957 13.3827 6.92388C13.5654 6.84819 13.7216 6.72002 13.8315 6.55557C13.9414 6.39112 14 6.19778 14 6C14 5.73478 13.8946 5.48043 13.7071 5.29289C13.5196 5.10536 13.2652 5 13 5ZM15 0H5C3.67392 0 2.40215 0.526784 1.46447 1.46447C0.526784 2.40215 0 3.67392 0 5V15C0 16.3261 0.526784 17.5979 1.46447 18.5355C2.40215 19.4732 3.67392 20 5 20H15C16.3261 20 17.5979 19.4732 18.5355 18.5355C19.4732 17.5979 20 16.3261 20 15V5C20 3.67392 19.4732 2.40215 18.5355 1.46447C17.5979 0.526784 16.3261 0 15 0V0ZM18 15C18 15.7956 17.6839 16.5587 17.1213 17.1213C16.5587 17.6839 15.7956 18 15 18H5C4.20435 18 3.44129 17.6839 2.87868 17.1213C2.31607 16.5587 2 15.7956 2 15V5C2 4.20435 2.31607 3.44129 2.87868 2.87868C3.44129 2.31607 4.20435 2 5 2H15C15.7956 2 16.5587 2.31607 17.1213 2.87868C17.6839 3.44129 18 4.20435 18 5V15ZM13 9C12.8022 9 12.6089 9.05865 12.4444 9.16853C12.28 9.27841 12.1518 9.43459 12.0761 9.61732C12.0004 9.80004 11.9806 10.0011 12.0192 10.1951C12.0578 10.3891 12.153 10.5673 12.2929 10.7071C12.4327 10.847 12.6109 10.9422 12.8049 10.9808C12.9989 11.0194 13.2 10.9996 13.3827 10.9239C13.5654 10.8482 13.7216 10.72 13.8315 10.5556C13.9414 10.3911 14 10.1978 14 10C14 9.73478 13.8946 9.48043 13.7071 9.29289C13.5196 9.10536 13.2652 9 13 9ZM13 13C12.8022 13 12.6089 13.0586 12.4444 13.1685C12.28 13.2784 12.1518 13.4346 12.0761 13.6173C12.0004 13.8 11.9806 14.0011 12.0192 14.1951C12.0578 14.3891 12.153 14.5673 12.2929 14.7071C12.4327 14.847 12.6109 14.9422 12.8049 14.9808C12.9989 15.0194 13.2 14.9996 13.3827 14.9239C13.5654 14.8482 13.7216 14.72 13.8315 14.5556C13.9414 14.3911 14 14.1978 14 14C14 13.7348 13.8946 13.4804 13.7071 13.2929C13.5196 13.1054 13.2652 13 13 13Z" fill="white"/>
</svg>
