<svg width="15" height="15" viewBox="0 0 20 20" fill="none" xmlns="http://www.w3.org/2000/svg">
<path d="M6.51009 10.4801C6.31231 10.4801 6.11897 10.5387 5.95452 10.6486C5.79007 10.7585 5.6619 10.9147 5.58621 11.0974C5.51052 11.2801 5.49072 11.4812 5.5293 11.6752C5.56789 11.8691 5.66313 12.0473 5.80298 12.1872C5.94283 12.327 6.12102 12.4223 6.315 12.4609C6.50898 12.4994 6.71005 12.4796 6.89277 12.4039C7.0755 12.3283 7.23168 12.2001 7.34156 12.0356C7.45144 11.8712 7.51009 11.6778 7.51009 11.4801C7.51009 11.2149 7.40473 10.9605 7.2172 10.773C7.02966 10.5854 6.77531 10.4801 6.51009 10.4801ZM6.51009 6.00007C6.31231 6.00007 6.11897 6.05872 5.95452 6.1686C5.79007 6.27848 5.6619 6.43466 5.58621 6.61738C5.51052 6.80011 5.49072 7.00118 5.5293 7.19516C5.56789 7.38914 5.66313 7.56732 5.80298 7.70717C5.94283 7.84703 6.12102 7.94227 6.315 7.98085C6.50898 8.01944 6.71005 7.99964 6.89277 7.92395C7.0755 7.84826 7.23168 7.72009 7.34156 7.55564C7.45144 7.39119 7.51009 7.19785 7.51009 7.00007C7.51009 6.73485 7.40473 6.4805 7.2172 6.29296C7.02966 6.10543 6.77531 6.00007 6.51009 6.00007ZM10.0001 8.00007C9.73487 8.00007 9.48052 8.10543 9.29298 8.29296C9.10545 8.4805 9.00009 8.73485 9.00009 9.00007V10.0001C9.00009 10.2653 9.10545 10.5196 9.29298 10.7072C9.48052 10.8947 9.73487 11.0001 10.0001 11.0001C10.2653 11.0001 10.5197 10.8947 10.7072 10.7072C10.8947 10.5196 11.0001 10.2653 11.0001 10.0001V9.00007C11.0001 8.73485 10.8947 8.4805 10.7072 8.29296C10.5197 8.10543 10.2653 8.00007 10.0001 8.00007ZM18.5001 6.57007C18.1551 6.37158 17.7741 6.24372 17.3792 6.19393C16.9844 6.14414 16.5835 6.17342 16.2001 6.28007C15.801 6.38696 15.4294 6.57789 15.1101 6.84007L3.51009 0.130068C3.35807 0.0423001 3.18563 -0.00390625 3.01009 -0.00390625C2.83455 -0.00390625 2.66211 0.0423001 2.51009 0.130068C2.35562 0.216894 2.227 0.343205 2.13739 0.496072C2.04778 0.648939 2.00039 0.822872 2.00009 1.00007V14.1701C1.40994 14.3691 0.89826 14.7505 0.538811 15.2591C0.179363 15.7677 -0.00927708 16.3773 8.84576e-05 17.0001C-0.000189628 17.782 0.304876 18.5332 0.850298 19.0936C1.39572 19.654 2.13839 19.9792 2.92009 20.0001H3.50009C6.77683 19.9924 9.99318 19.1178 12.8226 17.4651C15.652 15.8124 17.9938 13.4404 19.6101 10.5901C19.9834 9.90807 20.0773 9.10778 19.8721 8.35787C19.6669 7.60795 19.1786 6.96699 18.5101 6.57007H18.5001ZM4.00009 2.73007L13.8901 8.44007C12.7929 10.0773 11.3261 11.4335 9.60808 12.3994C7.89008 13.3652 5.96906 13.9135 4.00009 14.0001V2.73007ZM17.8701 9.61007C16.3855 12.2257 14.2175 14.3883 11.5981 15.8663C8.97865 17.3442 6.00657 18.0818 3.00009 18.0001C2.73487 18.0001 2.48052 17.8947 2.29298 17.7072C2.10545 17.5196 2.00009 17.2653 2.00009 17.0001C1.99931 16.8661 2.02546 16.7333 2.07699 16.6096C2.12853 16.4859 2.2044 16.3739 2.30009 16.2801C2.48796 16.099 2.73916 15.9985 3.00009 16.0001H3.51009C6.07781 15.999 8.59919 15.3162 10.8165 14.0213C13.0338 12.7264 14.8675 10.8659 16.1301 8.63007C16.1908 8.52038 16.2737 8.42458 16.3736 8.34881C16.4735 8.27304 16.5881 8.21897 16.7101 8.19007C16.9622 8.12086 17.2315 8.15317 17.4601 8.28007C17.6895 8.40339 17.8618 8.61137 17.9402 8.85976C18.0187 9.10815 17.9971 9.37734 17.8801 9.61007H17.8701Z" fill="white"/>
</svg>
