<svg width="15" height="15" viewBox="0 0 18 20" fill="none" xmlns="http://www.w3.org/2000/svg">
<path d="M15 5.00028H14.65C14.8782 4.53305 14.9979 4.02027 15 3.50028C15.003 2.80361 14.7975 2.12197 14.4098 1.54311C14.0221 0.964253 13.4701 0.514665 12.8247 0.25222C12.1794 -0.0102251 11.4703 -0.0735161 10.7886 0.070494C10.107 0.214504 9.48405 0.559224 9 1.06028C8.51595 0.559224 7.89302 0.214504 7.21138 0.070494C6.52975 -0.0735161 5.82061 -0.0102251 5.17525 0.25222C4.5299 0.514665 3.97786 0.964253 3.59019 1.54311C3.20252 2.12197 2.99697 2.80361 3 3.50028C3.00213 4.02027 3.12178 4.53305 3.35 5.00028H3C2.20435 5.00028 1.44129 5.31635 0.87868 5.87896C0.316071 6.44157 0 7.20463 0 8.00028V10.0003C0 10.2655 0.105357 10.5199 0.292893 10.7074C0.48043 10.8949 0.734784 11.0003 1 11.0003H2V17.0003C2 17.7959 2.31607 18.559 2.87868 19.1216C3.44129 19.6842 4.20435 20.0003 5 20.0003H13C13.7956 20.0003 14.5587 19.6842 15.1213 19.1216C15.6839 18.559 16 17.7959 16 17.0003V11.0003H17C17.2652 11.0003 17.5196 10.8949 17.7071 10.7074C17.8946 10.5199 18 10.2655 18 10.0003V8.00028C18 7.20463 17.6839 6.44157 17.1213 5.87896C16.5587 5.31635 15.7956 5.00028 15 5.00028ZM8 18.0003H5C4.73478 18.0003 4.48043 17.8949 4.29289 17.7074C4.10536 17.5199 4 17.2655 4 17.0003V11.0003H8V18.0003ZM8 9.00028H2V8.00028C2 7.73506 2.10536 7.48071 2.29289 7.29318C2.48043 7.10564 2.73478 7.00028 3 7.00028H8V9.00028ZM8 5.00028H6.5C6.20333 5.00028 5.91332 4.91231 5.66665 4.74749C5.41997 4.58266 5.22771 4.3484 5.11418 4.07431C5.00065 3.80022 4.97094 3.49862 5.02882 3.20765C5.0867 2.91667 5.22956 2.6494 5.43934 2.43962C5.64912 2.22984 5.91639 2.08698 6.20736 2.0291C6.49834 1.97123 6.79994 2.00093 7.07403 2.11446C7.34811 2.22799 7.58238 2.42025 7.7472 2.66693C7.91203 2.9136 8 3.20361 8 3.50028V5.00028ZM10 3.50028C10 3.20361 10.088 2.9136 10.2528 2.66693C10.4176 2.42025 10.6519 2.22799 10.926 2.11446C11.2001 2.00093 11.5017 1.97123 11.7926 2.0291C12.0836 2.08698 12.3509 2.22984 12.5607 2.43962C12.7704 2.6494 12.9133 2.91667 12.9712 3.20765C13.0291 3.49862 12.9994 3.80022 12.8858 4.07431C12.7723 4.3484 12.58 4.58266 12.3334 4.74749C12.0867 4.91231 11.7967 5.00028 11.5 5.00028H10V3.50028ZM14 17.0003C14 17.2655 13.8946 17.5199 13.7071 17.7074C13.5196 17.8949 13.2652 18.0003 13 18.0003H10V11.0003H14V17.0003ZM16 9.00028H10V7.00028H15C15.2652 7.00028 15.5196 7.10564 15.7071 7.29318C15.8946 7.48071 16 7.73506 16 8.00028V9.00028Z" fill="white"/>
</svg>
